# xmcd CD database file
# Copyright (C) 1995-1998 Ti Kan
#
# Track frame offsets:
#	187
#	13355
#	25472
#	38485
#	51367
#	63747
#	76652
#	85912
#	99165
#	112677
#	124265
#	134527
#	148177
#	157002
#	168425
#	182620
#	193540
#	205520
#	217165
#	226477
#
# Disc length: 3153 seconds
#
# Revision: 1
# Processed by: cddbd v1.4b41PL1 Copyright (c) Steve Scherf et al.
# Submitted via: CDex 1.30Release
#
DISCID=170c4f14
DTITLE=Monroe Brothers - Collection (1936-'38) 3
DYEAR=1997
DGENRE=Country
TTITLE0=What Would You Give In Exchange - Part 2
TTITLE1=On That Old Gospel Ship
TTITLE2=What Would You Give In Exchange - Part 3
TTITLE3=Let Us Be Lovers Again
TTITLE4=All The Good Times Are Passed And Gone
TTITLE5=What Would You Give In Exchange - Part 4
TTITLE6=On My Way To Glory
TTITLE7=My Last Moving Day
TTITLE8=He Will Set Your Fields On Fire
TTITLE9=Sinner You Better Get Ready
TTITLE10=Have A Feast Here Tonight
TTITLE11=Goodbye, Maggie
TTITLE12=Rollin' On
TTITLE13=The Old Man's Story
TTITLE14=I've Still Got Ninety Nine
TTITLE15=Little Joe
TTITLE16=A Beautiful Life
TTITLE17=Pearly Gates
TTITLE18=On My Way Back Home
TTITLE19=When Our Lord Shall Come Again
EXTD=YEAR: 1997 ID3G:   2
EXTT0=
EXTT1=
EXTT2=
EXTT3=
EXTT4=
EXTT5=
EXTT6=
EXTT7=
EXTT8=
EXTT9=
EXTT10=
EXTT11=
EXTT12=
EXTT13=
EXTT14=
EXTT15=
EXTT16=
EXTT17=
EXTT18=
EXTT19=
PLAYORDER=
